<?xml version="1.0" encoding="utf-8" standalone="yes"?>
<!DOCTYPE svg PUBLIC "-//W3C//DTD SVG 1.1//EN" "http://www.w3.org/Graphics/SVG/1.1/DTD/svg11.dtd">
<svg width="1044" height="564" viewBox="0 0 1044 564" style="fill:none;stroke:none;fill-rule:evenodd;clip-rule:evenodd;stroke-linecap:round;stroke-linejoin:round;stroke-miterlimit:1.5;" version="1.1" xmlns="http://www.w3.org/2000/svg" xmlns:xlink="http://www.w3.org/1999/xlink"><style class="text-font-style fontImports" data-font-family="Shantell Sans">@import url(https://fonts.googleapis.com/css2?family=Shantell+Sans:wght@300..800&amp;amp;display=block);</style><g id="items" style="isolation: isolate"><g id="blend" style="mix-blend-mode: normal"><g id="g-root-cp_2_g-2_v98100zuqadc-fill" data-item-order="-466118" transform="translate(518, 110)"><g id="cp_2_g-2_v98100zuqadc-fill" stroke="none" fill="#426397"><g><path d="M 490 10L 10 10L 10 124.227C 50.2747 127.291 82 160.941 82 202C 82 243.059 50.2747 276.709 10 279.773L 10 394L 490 394L 490 10Z"></path></g></g></g><g id="g-root-cp_0_g-0_v98100zuqadd-fill" data-item-order="-466114" transform="translate(446, 236)"><g id="cp_0_g-0_v98100zuqadd-fill" stroke="none" fill="#6b6b6b"><g><path d="M 76 142C 112.451 142 142 112.451 142 76C 142 39.5492 112.451 10 76 10C 39.5492 10 10 39.5492 10 76C 10 112.451 39.5492 142 76 142ZM 103.2699 84.8789C 103.5027 85.4801 103.6191 86.159 103.6191 86.9154C 103.6191 87.8658 103.3766 88.7192 102.8917 89.4756C 102.4262 90.2321 101.6989 90.8236 100.7097 91.2503C 99.7399 91.677 98.4986 91.8904 96.9858 91.8904C 95.7444 91.8904 94.6001 91.7643 93.5527 91.5122C 92.5248 91.26 91.6326 90.8527 90.8761 90.2902C 90.1391 89.7278 89.5669 88.9907 89.1596 88.0791C 88.7523 87.1675 88.5487 86.0523 88.5487 84.7334L 79.7915 84.7334C 79.7915 87.1191 80.2861 89.1847 81.2753 90.9303C 82.2645 92.6759 83.5834 94.1112 85.232 95.2361C 86.9 96.3611 88.7523 97.2048 90.7889 97.7673C 92.8254 98.3103 94.891 98.5819 96.9858 98.5819C 99.3132 98.5819 101.4177 98.32 103.299 97.7963C 105.1804 97.2727 106.7999 96.5065 108.1576 95.498C 109.5153 94.4894 110.553 93.2578 111.271 91.8031C 111.988 90.3484 112.347 88.6998 112.347 86.8572C 112.347 85.1116 112.046 83.5503 111.445 82.1732C 110.844 80.7961 109.9517 79.5645 108.7686 78.4783C 107.5855 77.3922 106.1114 76.4127 104.3464 75.5399C 102.6008 74.6671 100.574 73.8816 98.2659 73.1833C 96.8888 72.7566 95.6766 72.3202 94.6292 71.8741C 93.5818 71.428 92.6993 70.9528 91.9817 70.4485C 91.2641 69.9442 90.721 69.4012 90.3525 68.8193C 90.0033 68.2374 89.8288 67.5877 89.8288 66.87C 89.8288 65.9197 90.0809 65.0662 90.5852 64.3098C 91.0895 63.534 91.8459 62.923 92.8545 62.4769C 93.8631 62.0114 95.1238 61.7787 96.6366 61.7787C 98.2077 61.7787 99.5072 62.0502 100.5352 62.5933C 101.5825 63.1364 102.3583 63.8831 102.8626 64.8335C 103.3863 65.7645 103.6482 66.8506 103.6482 68.092L 112.318 68.092C 112.318 65.5705 111.668 63.3303 110.369 61.3714C 109.0886 59.4124 107.2848 57.8705 104.9574 56.7455C 102.6299 55.6206 99.9048 55.0581 96.7821 55.0581C 94.4934 55.0581 92.389 55.3393 90.4688 55.9018C 88.5681 56.4643 86.9194 57.2692 85.5229 58.3166C 84.1265 59.3445 83.0403 60.5859 82.2645 62.0405C 81.4887 63.4758 81.1008 65.0759 81.1008 66.8409C 81.1008 68.6641 81.4693 70.2643 82.2063 71.6414C 82.9627 73.0185 83.9907 74.2307 85.2902 75.278C 86.6091 76.306 88.122 77.2079 89.8288 77.9837C 91.555 78.7595 93.3782 79.4578 95.2983 80.0785C 97.0246 80.6215 98.4307 81.1452 99.5169 81.6495C 100.603 82.1538 101.4468 82.6678 102.048 83.1915C 102.6493 83.6957 103.0566 84.2582 103.2699 84.8789ZM 77.6095 55.64L 67.8923 55.64L 58.2921 87.8835L 48.7198 55.64L 39.0608 55.64L 53.7238 98L 56.4586 98L 62.8592 98L 77.6095 55.64Z"></path></g></g></g><g id="g-root-cp_1_g-1_v98100zuqade-fill" data-item-order="-466110" transform="translate(26, 110)"><g id="cp_1_g-1_v98100zuqade-fill" stroke="none" fill="#41735b"><g><path d="M 490 10L 10 10L 10 394L 490 394L 490 279.773C 449.725 276.709 418 243.059 418 202C 418 160.941 449.725 127.291 490 124.227L 490 10Z"></path></g></g></g><g id="g-root-ic_lute_mdl0r4zuqb64-fill" data-item-order="-36864" transform="translate(50, 206)"><g id="ic_lute_mdl0r4zuqb64-fill" stroke="none" fill="#43dd93"><g><path d="M 24 10C 16.268013 10 10 16.268013 10 24L 10 188C 10 195.727997 16.271999 202 24 202L 188 202C 195.731995 202.000015 202.000015 195.731995 202.000015 188.000015L 202 24C 202.000015 16.268013 195.731995 10 188.000015 10L 24 10ZM 60 162C 60 158.686295 62.686295 156 66 156L 146 156C 149.313705 156 152 158.686295 152 162C 152 165.313705 149.313705 168 146 168L 66 168C 62.686295 168 60 165.313721 60 162ZM 132 148C 121.709831 148 113.367996 139.658173 113.367996 129.367996L 113.367996 102C 113.368004 98.686295 116.054298 96 119.368004 96C 122.681709 96 125.368004 98.686295 125.368004 102L 125.367996 129.367996C 125.367409 133.031158 128.336823 136.001068 132 136.001068C 135.663162 136.001068 138.632584 133.031158 138.632004 129.367996L 138.632004 102C 138.632004 98.686295 141.318298 96 144.632004 96C 147.945709 96 150.632004 98.686295 150.632004 102L 150.632004 129.367996L 150.632004 142C 150.632324 144.468277 149.121033 146.684906 146.823257 147.586334C 144.525482 148.487778 141.91011 147.890076 140.23201 146.080002C 137.751999 147.311996 134.951996 148 132 148ZM 68 70C 68 66.686295 65.313705 64 62 64C 58.686295 64 56 66.686295 56 70L 56 142C 56 145.320007 58.688 148 62 148L 98 148C 101.313713 148 104 145.313705 104 142C 104 138.686295 101.313713 136 98 136L 68 136L 68 70Z"></path></g></g></g><g id="g-root-ic_ruth_18k22a8zurq4p-fill" data-item-order="-36864" transform="translate(782, 206)"><g id="ic_ruth_18k22a8zurq4p-fill" stroke="none" fill="#4f91fc"><g><path d="M 10 24C 10 16.271999 16.271999 10 24 10L 188 10C 195.727997 10 202 16.271999 202 24L 202 188C 202.000015 195.731995 195.731995 202.000015 188.000015 202.000015L 24 202C 16.268013 202.000015 10 195.731995 10 188.000015L 10 24ZM 66 156C 62.686295 156 60 158.686295 60 162C 60 165.313705 62.686295 168 66 168L 146 168C 149.313705 168 152 165.313705 152 162C 152 158.686295 149.313705 156 146 156L 66 156ZM 54 70C 54 66.686295 56.686295 64 60 64L 75 64C 86.654327 63.998444 96.994377 71.474915 100.644882 82.542763C 104.29538 93.610611 100.432358 105.77166 91.064003 112.704002L 104.367996 139.320007C 105.345421 141.240265 105.218117 143.537186 104.034485 145.337662C 102.850853 147.138153 100.792664 148.16571 98.642258 148.02977C 96.491844 147.893814 94.579453 146.615219 93.632004 144.680008L 80.056 117.528C 78.389229 117.843727 76.696419 118.001762 75 118.000008L 66 118L 66 142C 66 145.313705 63.313709 148 60 148C 56.686295 148 54 145.313705 54 142L 54 70ZM 66 106L 75 106C 83.284271 106.000008 90 99.284279 90 91.000008C 90 82.715736 83.284271 76.000008 75 76.000008L 66 76L 66 106ZM 113.367996 129.367996C 113.364853 135.808685 116.688286 141.79425 122.15683 145.196823C 127.625366 148.599396 134.463409 148.936386 140.240005 146.087997C 141.918106 147.898071 144.533478 148.495773 146.831253 147.594345C 149.129028 146.692902 150.64032 144.476273 150.639999 142.008011L 150.639999 129.367996L 150.639999 102C 150.639999 98.686295 147.95372 96 144.639999 96C 141.326294 96 138.639999 98.686295 138.639999 102L 138.639999 129.367996C 138.639999 133.032959 135.668976 136.003998 132.003998 136.003998C 128.33905 136.003998 125.368004 133.032959 125.368004 129.368011L 125.367996 102C 125.368004 98.686295 122.681709 96 119.368004 96C 116.054298 96 113.368004 98.686295 113.368004 102L 113.367996 129.367996Z"></path></g></g></g><g id="g-root-tx_whichcac_v98100zuqadf-fill" data-item-order="0" transform="translate(128, 38)"><g id="tx_whichcac_v98100zuqadf-fill" stroke="none" fill="#f4f4f4"><g><text style="font: bold 25px &quot;Shantell Sans&quot;, cursive; white-space: pre;" font-weight="bold" font-size="25px" font-family="'Shantell Sans', cursive"><tspan x="15.83" y="45" dominant-baseline="ideographic">Which caching algorithm to use for optimal performance?</tspan></text></g></g></g><g id="g-root-tx_leastfre_dj6yogzuxber-fill" data-item-order="0" transform="translate(266, 236)"><g id="tx_leastfre_dj6yogzuxber-fill" stroke="none" fill="#f4f4f4"><g><text style="font: 20px &quot;Shantell Sans&quot;, cursive; white-space: pre;" font-size="20px" font-family="'Shantell Sans', cursive"><tspan x="12" y="35" dominant-baseline="ideographic">Least </tspan><tspan x="12" y="59" dominant-baseline="ideographic">Frequently </tspan><tspan x="12" y="83" dominant-baseline="ideographic">Used (LFU)</tspan></text></g></g></g><g id="g-root-tx_leastrec_7qgb4zuxczp-fill" data-item-order="0" transform="translate(602, 248)"><g id="tx_leastrec_7qgb4zuxczp-fill" stroke="none" fill="#f4f4f4"><g><text style="font: 20px &quot;Shantell Sans&quot;, cursive; white-space: pre;" font-size="20px" font-family="'Shantell Sans', cursive"><tspan x="21.84" y="35" dominant-baseline="ideographic">Least Recently </tspan><tspan x="57.19" y="59" dominant-baseline="ideographic">Used (LRU)</tspan></text></g></g></g><g id="g-root-tx_retainsf_4njyfkzuxc7g-fill" data-item-order="0" transform="translate(266, 319.9999694824219)"><g id="tx_retainsf_4njyfkzuxc7g-fill" stroke="none" fill="#f4f4f4"><g><text style="font: 15px &quot;Shantell Sans&quot;, cursive; white-space: pre;" font-size="15px" font-family="'Shantell Sans', cursive"><tspan x="12" y="29" dominant-baseline="ideographic">Retains frequently </tspan><tspan x="12" y="47" dominant-baseline="ideographic">accessed items</tspan></text></g></g></g><g id="g-root-tx_evictsit_7qgb4zuxczq-fill" data-item-order="0" transform="translate(626, 307.9999694824219)"><g id="tx_evictsit_7qgb4zuxczq-fill" stroke="none" fill="#f4f4f4"><g><text style="font: 15px &quot;Shantell Sans&quot;, cursive; white-space: pre;" font-size="15px" font-family="'Shantell Sans', cursive"><tspan x="24.56" y="29" dominant-baseline="ideographic">Evicts items not </tspan><tspan x="12.14" y="47" dominant-baseline="ideographic">accessed recently</tspan></text></g></g></g><g id="g-root-cp_2_g-2_v98100zuqadc-stroke" data-item-order="-466118" transform="translate(518, 110)"><g id="cp_2_g-2_v98100zuqadc-stroke" fill="none" stroke-linecap="round" stroke-linejoin="round" stroke-miterlimit="4" stroke="#2c2c2c" stroke-width="2"><g><path d="M 490 10L 10 10L 10 124.2273C 50.2747 127.2911 82 160.9406 82 202C 82 243.0594 50.2747 276.7089 10 279.7727L 10 394L 490 394L 490 10Z"></path></g></g></g><g id="g-root-cp_0_g-0_v98100zuqadd-stroke" data-item-order="-466114" transform="translate(446, 236)"><g id="cp_0_g-0_v98100zuqadd-stroke" fill="none" stroke-linecap="round" stroke-linejoin="round" stroke-miterlimit="4" stroke="#2c2c2c" stroke-width="2"><g><path d="M 76 142C 112.4508 142 142 112.4508 142 76C 142 39.5492 112.4508 10 76 10C 39.5492 10 10 39.5492 10 76C 10 112.4508 39.5492 142 76 142ZM 103.2699 84.8789C 103.5027 85.4801 103.6191 86.159 103.6191 86.9154C 103.6191 87.8658 103.3766 88.7192 102.8917 89.4756C 102.4262 90.2321 101.6989 90.8236 100.7097 91.2503C 99.7399 91.677 98.4986 91.8904 96.9858 91.8904C 95.7444 91.8904 94.6001 91.7643 93.5527 91.5122C 92.5248 91.26 91.6326 90.8527 90.8761 90.2902C 90.1391 89.7278 89.5669 88.9907 89.1596 88.0791C 88.7523 87.1676 88.5487 86.0523 88.5487 84.7334L 79.7915 84.7334C 79.7915 87.1191 80.2861 89.1847 81.2753 90.9303C 82.2645 92.6759 83.5834 94.1112 85.232 95.2361C 86.9 96.3611 88.7523 97.2048 90.7889 97.7673C 92.8254 98.3103 94.891 98.5819 96.9858 98.5819C 99.3132 98.5819 101.4177 98.32 103.299 97.7963C 105.1804 97.2727 106.7999 96.5065 108.1576 95.498C 109.5153 94.4894 110.553 93.2578 111.2706 91.8031C 111.9883 90.3484 112.3471 88.6998 112.3471 86.8572C 112.3471 85.1116 112.0465 83.5503 111.4452 82.1732C 110.8439 80.7961 109.9517 79.5645 108.7686 78.4783C 107.5855 77.3922 106.1114 76.4127 104.3464 75.5399C 102.6008 74.6671 100.5739 73.8816 98.2659 73.1833C 96.8888 72.7566 95.6766 72.3202 94.6292 71.8741C 93.5818 71.428 92.6993 70.9528 91.9817 70.4485C 91.2641 69.9442 90.721 69.4012 90.3525 68.8193C 90.0033 68.2374 89.8288 67.5877 89.8288 66.87C 89.8288 65.9197 90.0809 65.0662 90.5852 64.3098C 91.0895 63.534 91.8459 62.923 92.8545 62.4769C 93.8631 62.0114 95.1238 61.7787 96.6366 61.7787C 98.2077 61.7787 99.5072 62.0502 100.5352 62.5933C 101.5825 63.1364 102.3583 63.8831 102.8626 64.8335C 103.3863 65.7645 103.6482 66.8506 103.6482 68.092L 112.318 68.092C 112.318 65.5705 111.6682 63.3303 110.3687 61.3714C 109.0886 59.4124 107.2848 57.8705 104.9574 56.7455C 102.6299 55.6206 99.9048 55.0581 96.7821 55.0581C 94.4934 55.0581 92.389 55.3393 90.4688 55.9018C 88.5681 56.4643 86.9194 57.2692 85.5229 58.3166C 84.1265 59.3445 83.0403 60.5859 82.2645 62.0405C 81.4887 63.4758 81.1008 65.0759 81.1008 66.8409C 81.1008 68.6641 81.4693 70.2643 82.2063 71.6414C 82.9627 73.0184 83.9907 74.2307 85.2902 75.278C 86.6091 76.306 88.122 77.2079 89.8288 77.9837C 91.555 78.7595 93.3782 79.4578 95.2983 80.0785C 97.0246 80.6215 98.4307 81.1452 99.5169 81.6495C 100.603 82.1538 101.4468 82.6678 102.048 83.1915C 102.6493 83.6957 103.0566 84.2582 103.2699 84.8789ZM 77.6095 55.64L 67.8923 55.64L 58.2921 87.8835L 48.7198 55.64L 39.0608 55.64L 53.7238 98L 62.8592 98L 77.6095 55.64Z"></path></g></g></g><g id="g-root-cp_1_g-1_v98100zuqade-stroke" data-item-order="-466110" transform="translate(26, 110)"><g id="cp_1_g-1_v98100zuqade-stroke" fill="none" stroke-linecap="round" stroke-linejoin="round" stroke-miterlimit="4" stroke="#2c2c2c" stroke-width="2"><g><path d="M 490 10L 10 10L 10 394L 490 394L 490 279.7727C 449.7253 276.7089 418 243.0594 418 202C 418 160.9406 449.7253 127.2911 490 124.2273L 490 10Z"></path></g></g></g><g id="g-root-ic_lute_mdl0r4zuqb64-stroke" data-item-order="-36864" transform="translate(50, 206)"></g><g id="g-root-ic_ruth_18k22a8zurq4p-stroke" data-item-order="-36864" transform="translate(782, 206)"></g><g id="g-root-tx_whichcac_v98100zuqadf-stroke" data-item-order="0" transform="translate(128, 38)"></g><g id="g-root-tx_leastfre_dj6yogzuxber-stroke" data-item-order="0" transform="translate(266, 236)"></g><g id="g-root-tx_leastrec_7qgb4zuxczp-stroke" data-item-order="0" transform="translate(602, 248)"></g><g id="g-root-tx_retainsf_4njyfkzuxc7g-stroke" data-item-order="0" transform="translate(266, 319.9999694824219)"></g><g id="g-root-tx_evictsit_7qgb4zuxczq-stroke" data-item-order="0" transform="translate(626, 307.9999694824219)"></g></g></g></svg>